<svg width="25" height="25" viewBox="0 0 48 48" fill="none" xmlns="http://www.w3.org/2000/svg">
    <path fill-rule="evenodd" clip-rule="evenodd" d="M34.6572 4H31.8166C30.8133 4 30 4.82084 30 5.83339V21.7672C30 22.7797 30.8133 23.6006 31.8166 23.6006H34.6572C35.6605 23.6006 36.4739 22.7797 36.4739 21.7672V5.83339C36.4739 4.82084 35.6605 4 34.6572 4ZM24.6572 8.79297H21.8166C20.8133 8.79297 20 9.6138 20 10.6264V26.5602C20 27.5727 20.8133 28.3936 21.8166 28.3936H24.6572C25.6605 28.3936 26.4739 27.5727 26.4739 26.5602V10.6264C26.4739 9.6138 25.6605 8.79297 24.6572 8.79297ZM11.8166 13.1667H14.6572C15.6605 13.1667 16.4739 13.9875 16.4739 15.0001V42.1675C16.4739 43.1801 15.6605 44.0009 14.6572 44.0009H11.8166C10.8133 44.0009 10 43.1801 10 42.1675V15.0001C10 13.9875 10.8133 13.1667 11.8166 13.1667Z" fill="#9CA1A8"/>
</svg>
