<svg width="25" height="24" viewBox="0 0 25 24" fill="none" xmlns="http://www.w3.org/2000/svg">
<g clip-path="url(#clip0_25567_65174)">
<path fill-rule="evenodd" clip-rule="evenodd" d="M19.582 1.96721H5.41803C3.78835 1.96721 2.46721 3.28835 2.46721 4.91803V19.082C2.46721 20.7117 3.78835 22.0328 5.41803 22.0328H19.582C21.2117 22.0328 22.5328 20.7117 22.5328 19.082V4.91803C22.5328 3.28835 21.2117 1.96721 19.582 1.96721ZM5.41803 0C2.70188 0 0.5 2.20188 0.5 4.91803V19.082C0.5 21.7981 2.70188 24 5.41803 24H19.582C22.2981 24 24.5 21.7981 24.5 19.082V4.91803C24.5 2.20188 22.2981 0 19.582 0H5.41803Z" fill="url(#paint0_linear_25567_65174)"/>
<path fill-rule="evenodd" clip-rule="evenodd" d="M15.0007 7.551C14.9546 7.50975 14.906 7.47028 14.8547 7.43255C14.4105 7.10553 13.8077 6.942 13.0462 6.942C12.5288 6.942 12.092 7.01523 11.7356 7.16165C11.3793 7.3032 11.106 7.5009 10.9156 7.75473C10.7111 8.03455 10.3629 8.26133 10.0617 8.08978C9.82533 7.9551 9.60706 7.78898 9.41318 7.59513C9.05158 7.23353 8.78646 6.787 8.64208 6.29643C8.57846 6.0803 8.63476 5.84408 8.80493 5.69643C9.18548 5.3662 9.63033 5.08825 10.1395 4.8626C10.9986 4.48188 11.9748 4.2915 13.0682 4.2915C14.1811 4.2915 15.1525 4.48188 15.9823 4.8626C16.817 5.24335 17.4662 5.77295 17.9299 6.45145C18.0995 6.69963 18.2391 6.9622 18.3486 7.23913C18.6735 8.06035 17.9237 8.80905 17.0406 8.80905C16.3512 8.80905 15.7993 8.29345 15.278 7.80635C15.1848 7.71928 15.0926 7.63313 15.0007 7.551ZM10.4616 9.17535C10.5925 9.12418 10.7326 9.20163 10.8058 9.32158C10.9327 9.5217 11.106 9.695 11.3256 9.84143C11.5453 9.98298 11.7991 10.1075 12.0871 10.2149C12.3751 10.3174 12.6826 10.4052 13.0096 10.4784L14.3568 10.8006C15.0109 10.947 15.6113 11.1423 16.158 11.3863C16.7047 11.6304 17.1782 11.9306 17.5784 12.2869C17.9787 12.6432 18.2887 13.063 18.5083 13.5463C18.7328 14.0295 18.8476 14.5835 18.8524 15.2083C18.8476 16.126 18.6133 16.9216 18.1495 17.5952C17.6907 18.2639 17.0269 18.7838 16.158 19.1548C15.294 19.5209 14.2519 19.7039 13.0316 19.7039C11.8211 19.7039 10.7667 19.5184 9.86858 19.1474C8.97533 18.7765 8.27731 18.2273 7.77456 17.5C7.54251 17.1588 7.36191 16.78 7.23271 16.3635C6.97211 15.5234 7.71486 14.7837 8.59441 14.7837H8.70846C9.46868 14.7837 10.0334 15.4359 10.4909 16.043C10.7496 16.3749 11.0938 16.6263 11.5233 16.7971C11.9577 16.9631 12.4483 17.0461 12.995 17.0461C13.5319 17.0461 13.9981 16.968 14.3935 16.8118C14.7937 16.6556 15.1037 16.4384 15.3233 16.1602C15.543 15.8819 15.6528 15.5622 15.6528 15.201C15.6528 14.8642 15.5527 14.5811 15.3526 14.3517C15.1574 14.1223 14.8694 13.927 14.4886 13.7659C14.1128 13.6048 13.6515 13.4584 13.1048 13.3266L11.4721 12.9166C10.401 12.6561 9.52088 12.2712 8.83171 11.7619C8.64541 11.6242 8.57666 11.3819 8.64208 11.1596C8.78641 10.6691 9.05151 10.2226 9.41306 9.861C9.71216 9.56185 10.0694 9.32873 10.4616 9.17535ZM8.52148 7.10693L8.37798 6.6194C8.37181 6.59823 8.35893 6.57963 8.34131 6.5664C8.32366 6.55318 8.30221 6.54603 8.28016 6.54603C8.25811 6.54603 8.23666 6.55318 8.21901 6.5664C8.20136 6.57963 8.18848 6.59823 8.18231 6.6194L8.03903 7.10693C7.94276 7.43393 7.76598 7.73158 7.52491 7.9726C7.28386 8.21363 6.98618 8.39033 6.65913 8.48658L6.17158 8.63005C6.07396 8.659 6.07396 8.79718 6.17158 8.82573L6.65913 8.9692C6.98613 9.06545 7.28376 9.2422 7.52481 9.48323C7.76583 9.72423 7.94256 10.0219 8.03883 10.3489L8.18231 10.8366C8.21106 10.934 8.34926 10.934 8.37798 10.8366L8.52148 10.3491C8.61771 10.022 8.79443 9.72435 9.03548 9.4833C9.27651 9.24225 9.57416 9.06548 9.90118 8.9692L10.3889 8.82573C10.4864 8.79698 10.4864 8.6588 10.3889 8.63025L9.90138 8.48678C9.57431 8.39053 9.27663 8.21378 9.03556 7.9727C8.79448 7.73165 8.61773 7.43398 8.52148 7.10693ZM6.78226 9.98653L6.82531 10.1328C6.85418 10.2309 6.90721 10.3202 6.97953 10.3925C7.05183 10.4648 7.14116 10.5179 7.23926 10.5467L7.38553 10.5898C7.41476 10.5984 7.41476 10.6398 7.38553 10.6484L7.23921 10.6915C7.14111 10.7204 7.05181 10.7734 6.97948 10.8457C6.90718 10.918 6.85416 11.0073 6.82531 11.1054L6.78226 11.2517C6.77363 11.2809 6.73218 11.2809 6.72356 11.2517L6.68051 11.1054C6.65163 11.0073 6.59861 10.918 6.52628 10.8457C6.45398 10.7734 6.36468 10.7204 6.26658 10.6915L6.12033 10.6484C6.09103 10.6399 6.09103 10.5984 6.12033 10.5897L6.26658 10.5467C6.36471 10.5178 6.45401 10.4648 6.52633 10.3925C6.59866 10.3202 6.65168 10.2309 6.68056 10.1328L6.72356 9.98653C6.72541 9.98018 6.72926 9.9746 6.73456 9.97063C6.73986 9.96665 6.74628 9.9645 6.75291 9.9645C6.75951 9.9645 6.76596 9.96665 6.77123 9.97063C6.77653 9.9746 6.78041 9.98018 6.78226 9.98653ZM6.50188 6.00755L6.43493 5.78005C6.43203 5.77018 6.42603 5.7615 6.41781 5.75533C6.40956 5.74915 6.39956 5.7458 6.38926 5.7458C6.37898 5.7458 6.36896 5.74915 6.36073 5.75533C6.35251 5.7615 6.34648 5.77018 6.34361 5.78005L6.27673 6.00755C6.23181 6.16018 6.14933 6.29905 6.03683 6.41155C5.92433 6.52403 5.78541 6.60648 5.63278 6.6514L5.40526 6.71835C5.35971 6.73185 5.35971 6.79635 5.40526 6.80968L5.63278 6.87663C5.78538 6.92155 5.92428 7.00403 6.03676 7.1165C6.14926 7.22898 6.23173 7.36788 6.27666 7.52045L6.34361 7.74808C6.35703 7.79353 6.42151 7.79353 6.43493 7.74808L6.50188 7.52055C6.54678 7.36795 6.62926 7.22903 6.74176 7.11653C6.85423 7.00405 6.99313 6.92155 7.14573 6.87663L7.37336 6.80968C7.41883 6.79625 7.41883 6.73178 7.37336 6.71845L7.14583 6.65148C6.99321 6.60658 6.85428 6.5241 6.74178 6.4116C6.62928 6.2991 6.54681 6.16018 6.50188 6.00755Z" fill="url(#paint1_linear_25567_65174)"/>
</g>
<defs>
<linearGradient id="paint0_linear_25567_65174" x1="2.06297" y1="23.7183" x2="9.87805" y2="-3.47177" gradientUnits="userSpaceOnUse">
<stop stop-color="#C639FF"/>
<stop offset="1" stop-color="#3662FF"/>
</linearGradient>
<linearGradient id="paint1_linear_25567_65174" x1="6.24906" y1="19.523" x2="11.8553" y2="2.46168" gradientUnits="userSpaceOnUse">
<stop stop-color="#C639FF"/>
<stop offset="1" stop-color="#3662FF"/>
</linearGradient>
<clipPath id="clip0_25567_65174">
<rect width="24" height="24" fill="white" transform="translate(0.5)"/>
</clipPath>
</defs>
</svg>
