<svg width="16" height="16" viewBox="0 0 16 16" fill="none" xmlns="http://www.w3.org/2000/svg">
    <path d="M10.0107 0.88661C9.42631 1.45707 9.06276 2.2507 9.06276 3.13173V8.35005C9.06276 9.11671 8.43794 9.74157 7.67132 9.74157H4.17294C3.40632 9.74157 2.78196 9.11671 2.78196 8.35005C2.78196 7.58339 3.40632 6.95807 4.17294 6.95807H8.00837V4.17548H4.17294C3.9377 4.17548 3.70479 4.19454 3.47699 4.23174C1.50395 4.56464 0 6.283 0 8.35005C0 10.1674 1.16179 11.7128 2.78196 12.2842C3.00558 12.3633 3.23803 12.4288 3.47699 12.4642C3.70479 12.506 3.9377 12.5269 4.17294 12.5269H7.67132C7.90981 12.5269 8.14086 12.506 8.36681 12.4642C8.6053 12.4288 8.83821 12.3633 9.06323 12.2842C10.6834 11.7128 11.8457 10.1674 11.8457 8.35005V6.95807C13.384 6.95807 14.629 5.71254 14.629 4.17595H11.8457V3.13126C11.8457 2.93832 12.0019 2.78489 12.192 2.78489H12.8894C13.7378 2.78489 14.5091 2.44875 15.073 1.89782C15.5783 1.40547 15.92 0.742949 16 0H12.1925C11.3464 0.000464924 10.5751 0.33893 10.0107 0.88661Z" fill="#6B7280"/>
    <path d="M4.17321 13.2197C3.40566 13.2197 2.78223 13.8409 2.78223 14.6089C2.78223 15.376 3.40566 16 4.17321 16C4.94215 16 5.56558 15.376 5.56558 14.608C5.56558 13.8409 4.94168 13.2197 4.17321 13.2197Z" fill="#6B7280"/>
    <path d="M8.34615 13.2197C7.57767 13.2197 6.95703 13.8409 6.95703 14.6089C6.95703 15.376 7.57767 16 8.34615 16C9.11696 16 9.7376 15.376 9.7376 14.608C9.73713 13.8409 9.11696 13.2197 8.34615 13.2197Z" fill="#6B7280"/>
</svg>
