<svg width="16" height="16" viewBox="0 0 16 16" fill="none" xmlns="http://www.w3.org/2000/svg">
    <mask id="mask0_7051_41349" style="mask-type:luminance" maskUnits="userSpaceOnUse" x="0" y="0" width="16" height="16">
        <path d="M16 0H0V16H16V0Z" fill="white"/>
    </mask>
    <g mask="url(#mask0_7051_41349)">
        <path fill-rule="evenodd" clip-rule="evenodd" d="M0.332032 12.5996L0.332031 0.250001L6.48471 0.25V12.5996V12.7545H6.48083C6.40015 14.3816 5.05543 15.6759 3.40837 15.6759C1.7613 15.6759 0.416564 14.3816 0.335865 12.7545H0.332032V12.5996Z" fill="white"/>
        <path fill-rule="evenodd" clip-rule="evenodd" d="M0.335865 12.7545C0.416564 14.3816 1.7613 15.6759 3.40837 15.6759C5.05543 15.6759 6.40015 14.3816 6.48083 12.7545H6.48471V0.25L0.332031 0.250001L0.332032 12.7545H0.335865ZM0.730404 12.6674L0.733748 12.7348C0.803985 14.1508 1.97471 15.2776 3.40837 15.2776C4.84202 15.2776 6.01275 14.1508 6.08298 12.7348L6.08632 12.6674V0.648377H0.730404V12.6674Z" fill="#6B7280"/>
        <path fill-rule="evenodd" clip-rule="evenodd" d="M5.33287 12.5113C5.3332 12.526 5.33337 12.5407 5.33337 12.5555C5.33337 13.619 4.47131 14.481 3.4079 14.481C2.34448 14.481 1.48242 13.619 1.48242 12.5555C1.48242 12.5407 1.48259 12.526 1.48292 12.5113H1.48242V1.44531H5.33337V12.5113H5.33287Z" fill="#6B7280"/>
        <path fill-rule="evenodd" clip-rule="evenodd" d="M1.56681 10.292L10.8663 2.16602L14.9148 6.7991L5.61524 14.9251L5.49858 15.027L5.49606 15.0242C4.21778 16.034 2.35825 15.873 1.27448 14.6328C0.190722 13.3925 0.280579 11.5282 1.45267 10.3968L1.45015 10.394L1.56681 10.292Z" fill="white"/>
        <path fill-rule="evenodd" clip-rule="evenodd" d="M1.45267 10.3968C0.280579 11.5282 0.190722 13.3925 1.27448 14.6328C2.35825 15.873 4.21778 16.034 5.49606 15.0242L5.49858 15.027L14.9148 6.7991L10.8663 2.16602L1.45015 10.394L1.45267 10.3968ZM1.77791 10.6366L1.72934 10.6835C0.709264 11.6681 0.631126 13.2911 1.57446 14.3707C2.51781 15.4502 4.13662 15.5904 5.24911 14.7115L5.30208 14.6697L14.3526 6.76122L10.8285 2.72813L1.77791 10.6366Z" fill="#6B7280"/>
        <path fill-rule="evenodd" clip-rule="evenodd" d="M4.92469 13.9997C4.91382 14.0096 4.90282 14.0194 4.89168 14.0292C4.09091 14.7289 2.87452 14.647 2.1748 13.8462C1.47508 13.0454 1.55699 11.8291 2.35777 11.1294C2.3689 11.1196 2.38012 11.11 2.39142 11.1006L2.3911 11.1002L10.724 3.81885L13.2579 6.71868L4.92501 14.0001L4.92469 13.9997Z" fill="#6B7280"/>
        <path fill-rule="evenodd" clip-rule="evenodd" d="M3.6185 9.75146H15.4239V15.5605H3.6185H3.47041V15.5569C1.91507 15.4807 0.677734 14.2111 0.677734 12.656C0.677734 11.1009 1.91507 9.83128 3.47041 9.75503V9.75146H3.6185Z" fill="white"/>
        <path fill-rule="evenodd" clip-rule="evenodd" d="M3.20448 9.63766C1.58297 9.7186 0.292969 11.0669 0.292969 12.7184C0.292969 14.3698 1.58297 15.7181 3.20448 15.799V15.8029H15.6667V9.63379H3.20448V9.63766ZM3.29135 10.0332L3.22415 10.0366C1.81294 10.107 0.689996 11.2809 0.689996 12.7184C0.689996 14.1559 1.81294 15.3297 3.22415 15.4001L3.29135 15.4034H15.2696V10.0332H3.29135Z" fill="#6B7280"/>
        <path fill-rule="evenodd" clip-rule="evenodd" d="M3.6067 14.8235C3.59198 14.8239 3.57723 14.8236 3.56244 14.8236C2.49902 14.8245 1.48726 13.8143 1.48633 12.7509C1.4854 11.6874 2.49567 10.6757 3.55908 10.6747C3.57387 10.6747 3.58863 10.6744 3.60334 10.6747L14.6693 10.665L14.6726 14.8139L3.6067 14.8235Z" fill="#F1F1F1"/>
        <path d="M3.93269 12.6372C3.93269 13.0428 3.60389 13.3716 3.19828 13.3716C2.79268 13.3716 2.46387 13.0428 2.46387 12.6372C2.46387 12.2316 2.79268 11.9028 3.19828 11.9028C3.60389 11.9028 3.93269 12.2316 3.93269 12.6372Z" fill="#6B7280"/>
        <path d="M7.29665 12.6136C7.29665 13.2896 6.74865 13.8377 6.07265 13.8377C5.39665 13.8377 4.84863 13.2896 4.84863 12.6136C4.84863 11.9376 5.39665 11.3896 6.07265 11.3896C6.74865 11.3896 7.29665 11.9376 7.29665 12.6136Z" fill="#6B7280"/>
        <path d="M10.5747 12.6136C10.5747 13.2896 10.0265 13.8377 9.35035 13.8377C8.6741 13.8377 8.12598 13.2896 8.12598 12.6136C8.12598 11.9376 8.6741 11.3896 9.35035 11.3896C10.0265 11.3896 10.5747 11.9376 10.5747 12.6136Z" fill="#6B7280"/>
        <path d="M13.7027 12.6136C13.7027 13.2896 13.1545 13.8377 12.4783 13.8377C11.8021 13.8377 11.2539 13.2896 11.2539 12.6136C11.2539 11.9376 11.8021 11.3896 12.4783 11.3896C13.1545 11.3896 13.7027 11.9376 13.7027 12.6136Z" fill="#6B7280"/>
        <path d="M6.0394 13.0458C5.8686 13.0458 5.73405 12.9932 5.63574 12.8879L5.73256 12.7538C5.81796 12.8452 5.92272 12.8909 6.04685 12.8909C6.11338 12.8909 6.16303 12.8775 6.1958 12.8507C6.22956 12.8238 6.24644 12.7921 6.24644 12.7553C6.24644 12.7176 6.22658 12.6878 6.18686 12.666C6.14714 12.6431 6.09898 12.6252 6.04238 12.6123C5.98578 12.5994 5.92868 12.584 5.87109 12.5662C5.81449 12.5483 5.76632 12.518 5.7266 12.4753C5.68688 12.4326 5.66702 12.3775 5.66702 12.31C5.66702 12.2265 5.70029 12.1575 5.76682 12.1029C5.83434 12.0473 5.92173 12.0195 6.02897 12.0195C6.1819 12.0195 6.30604 12.0657 6.40135 12.158L6.30154 12.2876C6.22609 12.2122 6.13026 12.1744 6.01408 12.1744C5.96244 12.1744 5.92123 12.1858 5.89045 12.2087C5.86066 12.2305 5.84576 12.2603 5.84576 12.298C5.84576 12.3228 5.85619 12.3437 5.87704 12.3606C5.89889 12.3775 5.92669 12.3914 5.96045 12.4023C5.99422 12.4122 6.03145 12.4222 6.07217 12.4321C6.11387 12.442 6.15509 12.4545 6.1958 12.4693C6.2375 12.4832 6.27523 12.5006 6.30898 12.5215C6.34279 12.5423 6.37004 12.5712 6.39092 12.6078C6.41279 12.6446 6.42367 12.6883 6.42367 12.739C6.42367 12.8283 6.39142 12.9018 6.32685 12.9594C6.26235 13.017 6.1665 13.0458 6.0394 13.0458Z" fill="white"/>
        <path d="M9.85934 13.0282H9.68509V12.2909L9.37971 13.0282H9.30527L9.0014 12.2909V13.0282H8.82715V12.0347H9.0729L9.34252 12.6886L9.61359 12.0347H9.85934V13.0282Z" fill="white"/>
        <path d="M12.8651 13.0282H12.2529V12.0347H12.4272V12.8748H12.8651V13.0282Z" fill="white"/>
    </g>
</svg>
