<svg xmlns="http://www.w3.org/2000/svg" width="237" height="68" viewBox="0 0 237 68" fill="none"><path d="M98.6275 45.1324H83.8758L80.5033 51.7405H72.5242L90.7033 16.0679H92.7871L109.65 51.7405H101.753L98.6275 45.1324ZM95.2823 38.0034L91.5533 30.0517L87.5226 38.0034H95.2823Z" fill="#453E6B"></path><path d="M122.51 36.6323C121.331 36.3307 119.137 35.7549 117.108 34.3839C114.257 32.492 112.666 29.75 112.529 26.35C112.365 23.4984 113.297 21.0033 115.134 19.0839C117.794 16.342 121.605 15.5742 123.442 15.5742C128.624 15.5742 131.531 17.4662 134.136 19.1387L135.315 19.9065L131.586 25.9662L130.324 25.1436C128.021 23.6629 126.568 22.7033 123.442 22.7033C122.976 22.7033 121.194 23.0597 120.289 24.0194C119.987 24.321 119.631 24.8968 119.686 26.0484C119.74 27.8855 121.002 28.9 124.265 29.7226C124.676 29.8323 124.977 29.9145 125.279 30.0242C128.679 31.2032 131.339 32.7662 133.176 34.7678C135.013 36.7968 135.973 39.2097 135.973 41.7323C135.973 44.2274 134.903 46.8323 133.121 48.8065C131.037 51.1371 128.131 52.4807 124.923 52.4807C123.332 52.4807 121.194 52.371 118.671 51.6032C115.463 50.5887 112.611 48.8065 110.171 46.2016L115.353 41.321C119.11 45.3516 123.332 45.3516 124.923 45.3516C127.884 45.3516 128.844 42.6645 128.844 41.7323C128.844 39.7855 126.65 38.0032 122.948 36.742L122.784 36.6871L122.51 36.6323Z" fill="#453E6B"></path><path d="M166.71 16.0677V23.1967H156.839V51.7677H149.71V23.1693H139.784V16.0403H166.71V16.0677Z" fill="#453E6B"></path><path d="M189.413 51.7404L182.75 37.4275H179.185V51.6855H172.056V16.0129H185.492C191.387 16.0129 196.185 20.8387 196.185 26.7613C196.185 31.0936 193.635 34.7952 189.934 36.4952L197.008 51.7678H189.413V51.7404ZM179.185 23.142V30.3258H185.492C187.466 30.3258 189.056 28.7355 189.056 26.7613C189.056 24.7871 187.466 23.142 185.492 23.142H179.185Z" fill="#453E6B"></path><path d="M225.908 45.1324H211.156L207.784 51.7405H199.805L217.984 16.0679H220.068L236.903 51.7405H229.006L225.908 45.1324ZM222.536 38.0034L218.806 30.0517L214.776 38.0034H222.536Z" fill="#453E6B"></path><path d="M34 68C52.7777 68 68 52.7777 68 34C68 15.2223 52.7777 0 34 0C15.2223 0 0 15.2223 0 34C0 52.7777 15.2223 68 34 68Z" fill="url(#paint0_linear_10282_94567)"></path><path d="M33.5887 15.0806C27.8306 27.2273 22.0726 39.4015 16.3145 51.5483C18.7823 51.5483 21.25 51.5483 23.7177 51.5483C28.379 42.1435 33.0403 32.7112 37.7016 23.3064L33.5887 15.0806Z" fill="white"></path><path d="M41.2661 30.1611C38.8806 35.0966 36.5226 40.0321 34.1371 44.9676L34 45.2418H34.1371C36.4129 45.2418 38.7161 45.2418 40.9919 45.2418C41.8968 47.3531 42.829 49.4369 43.7339 51.5482C46.3935 51.5482 49.0258 51.5482 51.6855 51.5482C48.2032 44.4192 44.7484 37.2902 41.2661 30.1611Z" fill="white"></path><defs><linearGradient id="paint0_linear_10282_94567" x1="8.73284" y1="56.7506" x2="59.2672" y2="11.2494" gradientUnits="userSpaceOnUse"><stop stop-color="#492CDD"></stop><stop offset="1" stop-color="#AD38E2"></stop></linearGradient></defs></svg>
