<svg xmlns="http://www.w3.org/2000/svg" id="be59dce6-c5ae-4fd6-803f-a8170ffe0478" data-name="Layer 1" width="40" height="40" viewBox="0 0 40 40"><path d="M20.5,17A3.5,3.5,0,1,0,24,20.5,3.5042,3.5042,0,0,0,20.5,17Zm0,6A2.5,2.5,0,1,1,23,20.5,2.5026,2.5026,0,0,1,20.5,23Z"></path><path d="M20,8A12,12,0,1,0,32,20,12.0137,12.0137,0,0,0,20,8Zm0,23A11,11,0,1,1,31,20,11.0125,11.0125,0,0,1,20,31Z"></path><path d="M20,0A20,20,0,1,0,40,20,20.023,20.023,0,0,0,20,0Zm0,39A19,19,0,1,1,39,20,19.0216,19.0216,0,0,1,20,39Z"></path></svg>