<svg xmlns="http://www.w3.org/2000/svg" id="b64a85e0-e2dd-40a7-b4aa-6ea319711b5b" data-name="Layer 1" width="46" height="31" viewBox="0 0 46 31"><path d="M43.4545,15.3429a9.596,9.596,0,0,0-6.7878-2.3564,9.6044,9.6044,0,0,0-7.7424,3.2466,9.038,9.038,0,0,1-.2122-2.304,10.1646,10.1646,0,0,1,.53-3.4561,13.4913,13.4913,0,0,1,3.0227-4.9747A15.3256,15.3256,0,0,1,37.197,1.8851L36.2424,0A18.48,18.48,0,0,0,25,17.1757a21.07,21.07,0,0,0,.7424,5.76,12.93,12.93,0,0,0,1.9091,4.1892Q30.3031,31,36.03,31a10.4245,10.4245,0,0,0,7.2121-2.4611A8.3437,8.3437,0,0,0,46,21.9932,8.6124,8.6124,0,0,0,43.4545,15.3429Z"></path><path d="M11.6667,12.9865a9.6044,9.6044,0,0,0-7.7424,3.2466,9.038,9.038,0,0,1-.2122-2.304,10.1646,10.1646,0,0,1,.53-3.4561A13.4913,13.4913,0,0,1,7.2651,5.4983,15.3256,15.3256,0,0,1,12.197,1.8851L11.2424,0A18.48,18.48,0,0,0,0,17.1757a21.07,21.07,0,0,0,.7424,5.76A12.93,12.93,0,0,0,2.6515,27.125Q5.3031,31,11.03,31a10.4245,10.4245,0,0,0,7.2121-2.4611A8.3437,8.3437,0,0,0,21,21.9932a8.6124,8.6124,0,0,0-2.5455-6.65A9.596,9.596,0,0,0,11.6667,12.9865Z"></path></svg>