<svg xmlns="http://www.w3.org/2000/svg" viewBox="0 0 38 38"><path d="M15.954 27.265a2.394 2.394 0 0 1-1.164.424l.025.774h7.667v-.769a2.5 2.5 0 0 1-1.178-.493c-.212-.197-.316-.65-.316-1.35V15.41h-6.173v.77c.479.039.934.223 1.307.527.26.395.376.87.325 1.34v7.695a1.996 1.996 0 0 1-.493 1.523Zm1.788-18.083a2.402 2.402 0 0 0-.807.548v-.02a2.402 2.402 0 0 0-.73 1.785 2.408 2.408 0 0 0 .73 1.77 2.402 2.402 0 0 0 1.765.73 2.394 2.394 0 0 0 1.756-.73 2.421 2.421 0 0 0 .73-1.77 2.42 2.42 0 0 0-.73-1.765A2.396 2.396 0 0 0 18.7 9a2.4 2.4 0 0 0-.958.182Z"></path><path fill-rule="evenodd" clip-rule="evenodd" d="M38 19c0 10.493-8.507 19-19 19S0 29.493 0 19 8.507 0 19 0s19 8.507 19 19Zm-1.5 0c0 9.665-7.835 17.5-17.5 17.5S1.5 28.665 1.5 19 9.335 1.5 19 1.5 36.5 9.335 36.5 19Z"></path></svg>