<svg xmlns="http://www.w3.org/2000/svg" id="Layer_2" width="140" height="140" viewBox="0 0 140 140"><defs><style>.cls-1{fill:#fff;}.cls-2{fill:#bcbcbc;}</style></defs><g><rect class="cls-2" width="12.21" height="11.76"></rect><rect class="cls-1" x="11.61" width="12.21" height="11.76"></rect><rect class="cls-2" x="23.23" width="12.21" height="11.76"></rect><rect class="cls-1" x="34.84" width="12.21" height="11.76"></rect><rect class="cls-2" x="46.45" width="12.21" height="11.76"></rect><rect class="cls-1" x="58.06" width="12.21" height="11.76"></rect><rect class="cls-2" x="69.68" width="12.21" height="11.76"></rect><rect class="cls-1" x="81.29" width="12.21" height="11.76"></rect><rect class="cls-2" x="92.9" width="12.21" height="11.76"></rect><rect class="cls-1" x="104.52" width="12.21" height="11.76"></rect><rect class="cls-1" x="127.74" width="12.21" height="11.76"></rect><rect class="cls-2" x="116.13" width="12.21" height="11.76"></rect><rect class="cls-2" x="11.67" y="11.68" width="12.21" height="11.76"></rect><rect class="cls-1" x="23.28" y="11.68" width="12.21" height="11.76"></rect><rect class="cls-2" x="34.89" y="11.68" width="12.21" height="11.76"></rect><rect class="cls-1" x="46.5" y="11.68" width="12.21" height="11.76"></rect><rect class="cls-2" x="58.12" y="11.68" width="12.21" height="11.76"></rect><rect class="cls-1" x="69.73" y="11.68" width="12.21" height="11.76"></rect><rect class="cls-2" x="81.34" y="11.68" width="12.21" height="11.76"></rect><rect class="cls-1" x="92.96" y="11.68" width="12.21" height="11.76"></rect><rect class="cls-2" x="104.57" y="11.68" width="12.21" height="11.76"></rect><rect class="cls-1" x="116.18" y="11.68" width="12.21" height="11.76"></rect><rect class="cls-2" x="128.33" y="11.68" width="11.67" height="11.76"></rect><rect class="cls-2" y="23.36" width="12.21" height="11.76"></rect><rect class="cls-1" x="11.61" y="23.36" width="12.21" height="11.76"></rect><rect class="cls-2" x="23.23" y="23.36" width="12.21" height="11.76"></rect><rect class="cls-1" x="34.84" y="23.36" width="12.21" height="11.76"></rect><rect class="cls-2" x="46.45" y="23.36" width="12.21" height="11.76"></rect><rect class="cls-1" x="58.06" y="23.36" width="12.21" height="11.76"></rect><rect class="cls-2" x="69.68" y="23.36" width="12.21" height="11.76"></rect><rect class="cls-1" x="81.29" y="23.36" width="12.21" height="11.76"></rect><rect class="cls-2" x="92.9" y="23.36" width="12.21" height="11.76"></rect><rect class="cls-1" x="104.52" y="23.36" width="12.21" height="11.76"></rect><rect class="cls-1" x="127.74" y="23.36" width="12.21" height="11.76"></rect><rect class="cls-2" x="116.13" y="23.36" width="12.21" height="11.76"></rect><rect class="cls-2" x="11.67" y="35.05" width="12.21" height="11.76"></rect><rect class="cls-1" x="23.28" y="35.05" width="12.21" height="11.76"></rect><rect class="cls-2" x="34.89" y="35.05" width="12.21" height="11.76"></rect><rect class="cls-1" x="46.5" y="35.05" width="12.21" height="11.76"></rect><rect class="cls-2" x="58.12" y="35.05" width="12.21" height="11.76"></rect><rect class="cls-1" x="69.73" y="35.05" width="12.21" height="11.76"></rect><rect class="cls-2" x="81.34" y="35.05" width="12.21" height="11.76"></rect><rect class="cls-1" x="92.96" y="35.05" width="12.21" height="11.76"></rect><rect class="cls-2" x="104.57" y="35.05" width="12.21" height="11.76"></rect><rect class="cls-1" x="116.18" y="35.05" width="12.21" height="11.76"></rect><rect class="cls-2" x="128.33" y="35.05" width="11.67" height="11.76"></rect><rect class="cls-2" y="46.73" width="12.21" height="11.76"></rect><rect class="cls-1" x="11.61" y="46.73" width="12.21" height="11.76"></rect><rect class="cls-2" x="23.23" y="46.73" width="12.21" height="11.76"></rect><rect class="cls-1" x="34.84" y="46.73" width="12.21" height="11.76"></rect><rect class="cls-2" x="46.45" y="46.73" width="12.21" height="11.76"></rect><rect class="cls-1" x="58.06" y="46.73" width="12.21" height="11.76"></rect><rect class="cls-2" x="69.68" y="46.73" width="12.21" height="11.76"></rect><rect class="cls-1" x="81.29" y="46.73" width="12.21" height="11.76"></rect><rect class="cls-2" x="92.9" y="46.73" width="12.21" height="11.76"></rect><rect class="cls-1" x="104.52" y="46.73" width="12.21" height="11.76"></rect><rect class="cls-1" x="127.74" y="46.73" width="12.21" height="11.76"></rect><rect class="cls-2" x="116.13" y="46.73" width="12.21" height="11.76"></rect><rect class="cls-2" x="11.67" y="58.41" width="12.21" height="11.76"></rect><rect class="cls-1" x="23.28" y="58.41" width="12.21" height="11.76"></rect><rect class="cls-2" x="34.89" y="58.41" width="12.21" height="11.76"></rect><rect class="cls-1" x="46.5" y="58.41" width="12.21" height="11.76"></rect><rect class="cls-2" x="58.12" y="58.41" width="12.21" height="11.76"></rect><rect class="cls-1" x="69.73" y="58.41" width="12.21" height="11.76"></rect><rect class="cls-2" x="81.34" y="58.41" width="12.21" height="11.76"></rect><rect class="cls-1" x="92.96" y="58.41" width="12.21" height="11.76"></rect><rect class="cls-2" x="104.57" y="58.41" width="12.21" height="11.76"></rect><rect class="cls-1" x="116.18" y="58.41" width="12.21" height="11.76"></rect><rect class="cls-2" x="128.33" y="58.41" width="11.67" height="11.76"></rect><rect class="cls-2" y="70.09" width="12.21" height="11.76"></rect><rect class="cls-1" x="11.61" y="70.09" width="12.21" height="11.76"></rect><rect class="cls-2" x="23.23" y="70.09" width="12.21" height="11.76"></rect><rect class="cls-1" x="34.84" y="70.09" width="12.21" height="11.76"></rect><rect class="cls-2" x="46.45" y="70.09" width="12.21" height="11.76"></rect><rect class="cls-1" x="58.06" y="70.09" width="12.21" height="11.76"></rect><rect class="cls-2" x="69.68" y="70.09" width="12.21" height="11.76"></rect><rect class="cls-1" x="81.29" y="70.09" width="12.21" height="11.76"></rect><rect class="cls-2" x="92.9" y="70.09" width="12.21" height="11.76"></rect><rect class="cls-1" x="104.52" y="70.09" width="12.21" height="11.76"></rect><rect class="cls-1" x="127.74" y="70.09" width="12.21" height="11.76"></rect><rect class="cls-2" x="116.13" y="70.09" width="12.21" height="11.76"></rect><rect class="cls-2" x="11.67" y="81.77" width="12.21" height="11.76"></rect><rect class="cls-1" x="23.28" y="81.77" width="12.21" height="11.76"></rect><rect class="cls-2" x="34.89" y="81.77" width="12.21" height="11.76"></rect><rect class="cls-1" x="46.5" y="81.77" width="12.21" height="11.76"></rect><rect class="cls-2" x="58.12" y="81.77" width="12.21" height="11.76"></rect><rect class="cls-1" x="69.73" y="81.77" width="12.21" height="11.76"></rect><rect class="cls-2" x="81.34" y="81.77" width="12.21" height="11.76"></rect><rect class="cls-1" x="92.96" y="81.77" width="12.21" height="11.76"></rect><rect class="cls-2" x="104.57" y="81.77" width="12.21" height="11.76"></rect><rect class="cls-1" x="116.18" y="81.77" width="12.21" height="11.76"></rect><rect class="cls-2" x="128.33" y="81.77" width="11.67" height="11.76"></rect><rect class="cls-2" y="93.45" width="12.21" height="11.76"></rect><rect class="cls-1" x="11.61" y="93.45" width="12.21" height="11.76"></rect><rect class="cls-2" x="23.23" y="93.45" width="12.21" height="11.76"></rect><rect class="cls-1" x="34.84" y="93.45" width="12.21" height="11.76"></rect><rect class="cls-2" x="46.45" y="93.45" width="12.21" height="11.76"></rect><rect class="cls-1" x="58.06" y="93.45" width="12.21" height="11.76"></rect><rect class="cls-2" x="69.68" y="93.45" width="12.21" height="11.76"></rect><rect class="cls-1" x="81.29" y="93.45" width="12.21" height="11.76"></rect><rect class="cls-2" x="92.9" y="93.45" width="12.21" height="11.76"></rect><rect class="cls-1" x="104.52" y="93.45" width="12.21" height="11.76"></rect><rect class="cls-1" x="127.74" y="93.45" width="12.21" height="11.76"></rect><rect class="cls-2" x="116.13" y="93.45" width="12.21" height="11.76"></rect><rect class="cls-2" x="11.67" y="105.14" width="12.21" height="11.76"></rect><rect class="cls-1" x="23.28" y="105.14" width="12.21" height="11.76"></rect><rect class="cls-2" x="34.89" y="105.14" width="12.21" height="11.76"></rect><rect class="cls-1" x="46.5" y="105.14" width="12.21" height="11.76"></rect><rect class="cls-2" x="58.12" y="105.14" width="12.21" height="11.76"></rect><rect class="cls-1" x="69.73" y="105.14" width="12.21" height="11.76"></rect><rect class="cls-2" x="81.34" y="105.14" width="12.21" height="11.76"></rect><rect class="cls-1" x="92.96" y="105.14" width="12.21" height="11.76"></rect><rect class="cls-2" x="104.57" y="105.14" width="12.21" height="11.76"></rect><rect class="cls-1" x="116.18" y="105.14" width="12.21" height="11.76"></rect><rect class="cls-2" x="128.33" y="105.14" width="11.67" height="11.76"></rect><rect class="cls-2" y="116.91" width="12.21" height="11.76"></rect><rect class="cls-1" x="11.61" y="116.91" width="12.21" height="11.76"></rect><rect class="cls-2" x="23.23" y="116.91" width="12.21" height="11.76"></rect><rect class="cls-1" x="34.84" y="116.91" width="12.21" height="11.76"></rect><rect class="cls-2" x="46.45" y="116.91" width="12.21" height="11.76"></rect><rect class="cls-1" x="58.06" y="116.91" width="12.21" height="11.76"></rect><rect class="cls-2" x="69.68" y="116.91" width="12.21" height="11.76"></rect><rect class="cls-1" x="81.29" y="116.91" width="12.21" height="11.76"></rect><rect class="cls-2" x="92.9" y="116.91" width="12.21" height="11.76"></rect><rect class="cls-1" x="104.52" y="116.91" width="12.21" height="11.76"></rect><rect class="cls-1" x="127.74" y="116.91" width="12.21" height="11.76"></rect><rect class="cls-2" x="116.13" y="116.91" width="12.21" height="11.76"></rect><rect class="cls-2" x="11.67" y="128.59" width="12.21" height="11.41"></rect><rect class="cls-1" x="23.28" y="128.59" width="12.21" height="11.41"></rect><rect class="cls-2" x="34.89" y="128.59" width="12.21" height="11.41"></rect><rect class="cls-1" x="46.5" y="128.59" width="12.21" height="11.41"></rect><rect class="cls-2" x="58.12" y="128.59" width="12.21" height="11.41"></rect><rect class="cls-1" x="69.73" y="128.59" width="12.21" height="11.41"></rect><rect class="cls-2" x="81.34" y="128.59" width="12.21" height="11.41"></rect><rect class="cls-1" x="92.96" y="128.59" width="12.21" height="11.41"></rect><rect class="cls-2" x="104.57" y="128.59" width="12.21" height="11.41"></rect><rect class="cls-1" x="116.18" y="128.59" width="12.21" height="11.41"></rect><rect class="cls-2" x="128.33" y="128.59" width="11.67" height="11.41"></rect></g><rect width="140" height="140"></rect></svg>