<svg width="16" height="16" viewBox="0 0 16 16" fill="none" xmlns="http://www.w3.org/2000/svg">
    <path fill-rule="evenodd" clip-rule="evenodd" d="M8 16C12.4183 16 16 12.4183 16 8.00001C16 3.58172 12.4183 0 8 0C3.58173 0 0 3.58172 0 8.00001C0 12.4183 3.58173 16 8 16ZM7.90321 3.54842C7.22585 4.97738 6.54848 6.40793 5.87111 7.83844C5.19365 9.26921 4.51615 10.6999 3.8387 12.1291H5.58062C6.12904 11.0226 6.67742 9.91454 7.2258 8.80648C7.77418 7.69841 8.32256 6.59035 8.87098 5.48389L7.90321 3.54842ZM8.87094 8.83864C9.14994 8.25804 9.42895 7.67743 9.70959 7.09683C10.1192 7.93546 10.5273 8.77414 10.9353 9.61277C11.3434 10.4515 11.7515 11.2903 12.1612 12.1291H10.2902C10.1838 11.8807 10.0757 11.6339 9.96766 11.3871C9.8596 11.1404 9.75151 10.8936 9.64505 10.6452H8.03216H7.99991L8.03216 10.5807C8.31285 9.99999 8.59189 9.41934 8.87094 8.83864Z" fill="#6B7280"/>
</svg>
