<svg width="16" height="16" viewBox="0 0 16 16" fill="none" xmlns="http://www.w3.org/2000/svg">
    <rect width="16" height="16" rx="2" fill="#6B7280"/>
    <path d="M7.99902 2.30762C10.72 2.30773 12.9931 4.2175 13.5557 6.76953H15.0752V9.23047H13.5557C12.9931 11.7826 10.7201 13.6923 7.99902 13.6924C5.2778 13.6924 3.0039 11.7827 2.44141 9.23047H0.921875V6.76953H2.44141C3.00396 4.21738 5.27785 2.30762 7.99902 2.30762ZM7.99902 4.77441C6.21741 4.77441 4.77348 6.21851 4.77344 8C4.77344 9.78153 6.21739 11.2256 7.99902 11.2256C9.78055 11.2255 11.2246 9.78145 11.2246 8C11.2246 6.21859 9.78052 4.77455 7.99902 4.77441Z" fill="white"/>
</svg>
