<svg width="15" height="16" viewBox="0 0 15 16" fill="none" xmlns="http://www.w3.org/2000/svg">
    <path d="M9.49219 7.94386L14.0717 5.28027V10.6075L9.49219 7.94386Z" fill="#6B7280"/>
    <path d="M9.49219 2.66357L14.0717 5.32718L9.49219 7.99077V2.66357Z" fill="#6B7280"/>
    <path d="M9.4926 2.66357V7.94404L4.91309 5.28045L9.4926 2.66357Z" fill="#6B7280"/>
    <path d="M9.53947 2.66359L4.95996 5.32719V0L9.53947 2.66359Z" fill="#6B7280"/>
    <path d="M4.91252 5.32715V10.6543L0.333008 7.99074L4.91252 5.32715Z" fill="#6B7280"/>
    <path d="M4.91252 0V5.32719L0.333008 2.66359L4.91252 0Z" fill="#6B7280"/>
    <path d="M4.91252 10.6079V15.9351L0.333008 13.2715L4.91252 10.6079Z" fill="#6B7280"/>
    <path d="M9.49219 7.94385L14.0717 10.6075L9.49219 13.271V7.94385Z" fill="#6B7280"/>
    <path d="M0.333008 7.94385L4.91252 10.6075L0.333008 13.271V7.94385Z" fill="#6B7280"/>
    <path d="M0.333008 2.66357L4.91252 5.32718L0.333008 7.99077V2.66357Z" fill="#6B7280"/>
    <path d="M9.4926 7.94385V13.271L4.91309 10.6075L9.4926 7.94385Z" fill="#6B7280"/>
    <path d="M9.49219 7.94386L14.0717 5.28027V10.6075L9.49219 7.94386Z" fill="#6B7280"/>
    <path d="M9.49219 2.66357L14.0717 5.32718L9.49219 7.99077V2.66357Z" fill="#6B7280"/>
    <path d="M9.4926 2.66357V7.94404L4.91309 5.28045L9.4926 2.66357Z" fill="#6B7280"/>
    <path d="M9.53947 2.66359L4.95996 5.32719V0L9.53947 2.66359Z" fill="#6B7280"/>
    <path d="M4.91252 5.32715V10.6543L0.333008 7.99074L4.91252 5.32715Z" fill="#6B7280"/>
    <path d="M4.91252 0V5.32719L0.333008 2.66359L4.91252 0Z" fill="#6B7280"/>
    <path d="M4.91252 10.6079V15.9351L0.333008 13.2715L4.91252 10.6079Z" fill="#6B7280"/>
    <path d="M9.49219 7.94385L14.0717 10.6075L9.49219 13.271V7.94385Z" fill="#6B7280"/>
    <path d="M0.333008 7.94385L4.91252 10.6075L0.333008 13.271V7.94385Z" fill="#6B7280"/>
    <path d="M0.333008 2.66357L4.91252 5.32718L0.333008 7.99077V2.66357Z" fill="#6B7280"/>
    <path d="M9.4926 7.94385V13.271L4.91309 10.6075L9.4926 7.94385Z" fill="#6B7280"/>
    <path d="M9.49219 7.94386L14.0717 5.28027V10.6075L9.49219 7.94386Z" fill="#6B7280"/>
    <path d="M9.49219 2.66357L14.0717 5.32718L9.49219 7.99077V2.66357Z" fill="#6B7280"/>
    <path d="M9.4926 2.66357V7.94404L4.91309 5.28045L9.4926 2.66357Z" fill="#6B7280"/>
    <path d="M9.53947 2.66359L4.95996 5.32719V0L9.53947 2.66359Z" fill="#6B7280"/>
    <path d="M4.91252 5.32715V10.6543L0.333008 7.99074L4.91252 5.32715Z" fill="#6B7280"/>
    <path d="M4.91252 0V5.32719L0.333008 2.66359L4.91252 0Z" fill="#6B7280"/>
    <path d="M4.91252 10.6079V15.9351L0.333008 13.2715L4.91252 10.6079Z" fill="#6B7280"/>
    <path d="M9.49219 7.94385L14.0717 10.6075L9.49219 13.271V7.94385Z" fill="#6B7280"/>
    <path d="M0.333008 7.94385L4.91252 10.6075L0.333008 13.271V7.94385Z" fill="#6B7280"/>
    <path d="M0.333008 2.66357L4.91252 5.32718L0.333008 7.99077V2.66357Z" fill="#6B7280"/>
    <path d="M9.4926 7.94385V13.271L4.91309 10.6075L9.4926 7.94385Z" fill="#6B7280"/>
</svg>
