<svg width="16" height="16" viewBox="0 0 16 16" fill="none" xmlns="http://www.w3.org/2000/svg">
    <path fill-rule="evenodd" clip-rule="evenodd" d="M8 16C12.4183 16 16 12.4183 16 8C16 3.58171 12.4183 0 8 0C3.58171 0 0 3.58171 0 8C0 12.4183 3.58171 16 8 16ZM10.4601 10.344C10.9227 10.0516 11.2 9.56233 11.2 9.03877C11.2 8.31122 10.6688 7.67851 9.91541 7.50871L7.65806 6.94839C7.44526 6.90043 7.39426 6.63806 7.57529 6.52258L9.33397 5.40085C10.1526 4.8787 10.3654 3.83227 9.80935 3.06359C9.73986 2.9675 9.60055 2.94251 9.49822 3.00779L5.52535 5.68763C5.07163 5.97703 4.8 6.45865 4.8 6.97367C4.8 7.69253 5.32482 8.31762 6.06923 8.48539L8.36336 9.05401C8.57664 9.10208 8.6272 9.36533 8.44526 9.48034L6.67367 10.6003C5.85275 11.1193 5.63529 12.1648 6.18795 12.9357C6.25705 13.032 6.39623 13.0576 6.49886 12.9927L10.4601 10.344Z" fill="#6B7280"/>
</svg>
