<svg width="16" height="16" viewBox="0 0 16 16" fill="none" xmlns="http://www.w3.org/2000/svg">
    <path fill-rule="evenodd" clip-rule="evenodd" d="M8.00003 16C12.4183 16 16 12.4182 16 7.99996C16 3.5817 12.4183 0 8.00003 0C3.58173 0 0 3.5817 0 7.99996C0 12.4182 3.58173 16 8.00003 16ZM8.03448 3.99997C7.39212 3.99997 6.50316 4.36734 6.04893 4.82049L4.81527 6.05126H10.9643L13.0204 3.99997H8.03448ZM9.94076 11.1794C9.48653 11.6326 8.59757 12 7.95521 12H2.96926L5.02536 9.94867H11.1744L9.94076 11.1794ZM11.9392 7.07689H3.78945L3.40448 7.4615C2.49294 8.28202 2.7633 8.92304 4.03986 8.92304H12.2117L12.5968 8.53842C13.4995 7.72275 13.2158 7.07689 11.9392 7.07689Z" fill="#6B7280"/>
</svg>
