<svg width="14" height="16" viewBox="0 0 14 16" fill="none" xmlns="http://www.w3.org/2000/svg">
    <path d="M13.9961 5.92151C13.9961 2.65069 11.3854 0 8.16378 0H0V15.9844H1.37187C3.75337 15.9844 5.71869 14.1788 6.01349 11.8411H6.01734L6.02697 9.36056H5.82081C4.17148 9.36056 2.83044 8.02641 2.7842 6.36361H2.78227V5.5733H3.56262C4.65318 5.5733 5.6185 6.12104 6.20809 6.95831C6.77071 4.93361 8.60501 3.44883 10.7784 3.44883V4.23915V5.30138C10.7784 7.53344 9.12331 9.34491 6.92871 9.3586V11.8411C7.21387 14.1846 9.18304 16 11.5703 16H14V11.2483H10.7129C12.659 10.2878 14 8.26311 14 5.91955L13.9961 5.92151Z" fill="#6B7280"/>
</svg>
