<svg width="16" height="16" viewBox="0 0 16 16" fill="none" xmlns="http://www.w3.org/2000/svg">
    <path d="M15.5 0H0.5C0.223858 0 0 0.223858 0 0.5V15.5C0 15.7761 0.223858 16 0.5 16H15.5C15.7761 16 16 15.7761 16 15.5V0.5C16 0.223858 15.7761 0 15.5 0Z" fill="#6B7280"/>
    <path d="M4.26829 7.77682C4.40744 7.87744 4.60502 7.84439 4.69604 7.70902C4.79669 7.56987 4.76362 7.37227 4.62824 7.28124L3.28822 6.32124C3.24059 6.28452 3.24474 6.23854 3.24682 6.21557C3.24892 6.19259 3.26644 6.15249 3.32409 6.12992L12.2403 3.85669C12.2921 3.84749 12.3226 3.86879 12.3435 3.89384C12.3644 3.91892 12.3853 3.94397 12.3619 3.99744L8.98366 12.5452C8.96027 12.5987 8.91809 12.6042 8.89886 12.6117C8.87589 12.6096 8.82994 12.6054 8.80151 12.5612L7.78039 10.6895C7.74819 10.6357 7.72186 10.5684 7.68966 10.5145C7.29001 9.60732 7.18914 8.93789 7.93922 8.27847L9.87036 6.49134C10.0015 6.37349 10.0144 6.18007 9.90029 6.05854C9.78246 5.92742 9.58904 5.91452 9.46749 6.02859L7.43922 7.77682C6.41724 8.67572 6.58741 9.79384 7.23407 10.9922L8.25519 12.8638C8.38561 13.1119 8.65091 13.2518 8.93456 13.2404C9.00934 13.2333 9.08996 13.2128 9.15721 13.1864C9.33974 13.115 9.48259 12.9704 9.56439 12.7832L12.9426 4.23539C13.0441 3.98512 12.9964 3.69354 12.8158 3.48724C12.6353 3.28092 12.36 3.20037 12.0951 3.25977L3.16934 5.53674C2.89867 5.60952 2.69402 5.82264 2.63647 6.10004C2.57889 6.37744 2.69762 6.65229 2.92827 6.81682L4.26829 7.77682Z" fill="white"/>
    <path d="M3.84583 10.35C3.87093 10.3402 3.90111 10.3187 3.92293 10.3006L5.27256 9.116C5.38673 9.0134 5.39796 8.84502 5.29863 8.7392C5.19603 8.62505 5.02766 8.61382 4.92186 8.71315L3.57221 9.8977C3.45806 10.0003 3.44683 10.1687 3.54613 10.2745C3.62218 10.3701 3.73711 10.3926 3.84583 10.35Z" fill="white"/>
    <path d="M3.67424 12.2448C3.69937 12.235 3.72962 12.2136 3.75147 12.1955L6.04519 10.1868C6.15964 10.0845 6.17134 9.9162 6.07232 9.8101C5.97004 9.69565 5.80169 9.68395 5.69562 9.78297L3.40189 11.7917C3.28744 11.8939 3.27574 12.0623 3.37477 12.1684C3.44729 12.2558 3.57377 12.2838 3.67424 12.2448Z" fill="white"/>
</svg>
