<svg width="16" height="17" viewBox="0 0 16 17" fill="none" xmlns="http://www.w3.org/2000/svg">
    <path d="M7.99918 0.713223C12.0657 0.713223 15.3739 4.02274 15.3739 8.09069C15.3739 12.1593 12.0657 15.4694 7.99918 15.4694C3.93269 15.4694 0.624109 12.1593 0.624109 8.09069C0.624421 4.02274 3.93269 0.713223 7.99918 0.713223ZM7.99918 0.0913086C3.58014 0.0913086 -0.000976562 3.67385 -0.000976562 8.09069C-0.000976562 12.5091 3.58014 16.0913 7.99918 16.0913C12.4176 16.0913 15.999 12.5091 15.999 8.09069C15.999 3.67291 12.417 0.0913086 7.99918 0.0913086Z" fill="#6B7280"/>
    <path d="M7.84526 9.55405C7.74743 9.89361 7.60147 10.1937 7.40082 10.4512C7.20548 10.7055 6.95013 10.908 6.64416 11.0541C6.33536 11.1993 5.97219 11.2721 5.54713 11.2721C5.10738 11.2721 4.73452 11.1937 4.42354 11.0389C4.11381 10.8871 3.86378 10.68 3.66625 10.4207C3.47528 10.1632 3.33183 9.86376 3.24275 9.52233C3.15118 9.17872 3.10742 8.82206 3.10742 8.44797V5.54736H4.3776V8.44828C4.3776 8.66875 4.39822 8.87772 4.43854 9.07331C4.48011 9.27325 4.54481 9.44739 4.64044 9.60287C4.73452 9.7571 4.85141 9.88055 5.00174 9.97042C5.14676 10.0609 5.32835 10.1066 5.54682 10.1066C5.76529 10.1066 5.94562 10.0612 6.09596 9.96762C6.24629 9.87402 6.37006 9.75089 6.45913 9.59789C6.55321 9.44366 6.61946 9.26517 6.65885 9.06274C6.69698 8.86403 6.71729 8.66129 6.71729 8.44922V5.55078H7.98746V8.44922H7.98809C7.98778 8.846 7.93965 9.21262 7.84526 9.55405Z" fill="#6B7280"/>
    <path d="M12.8913 10.0874H9.04395V11.2731H12.8913V10.0874Z" fill="#6B7280"/>
    <path d="M12.8913 7.81787H9.04395V9.00355H12.8913V7.81787Z" fill="#6B7280"/>
    <path d="M12.8913 5.54883H9.04395V6.73451H12.8913V5.54883Z" fill="#6B7280"/>
</svg>
